<svg width="1387" height="771" viewBox="0 0 1387 771" fill="none" xmlns="http://www.w3.org/2000/svg">
<path d="M-149 760.168C-150.312 760.196 -151.57 760.726 -152.498 761.661C-153.426 762.596 -153.947 763.856 -153.947 765.168C-153.947 766.48 -153.426 767.74 -152.498 768.675C-151.57 769.61 -150.312 770.14 -149 770.168C-149 770.168 -149 770.168 -149 770.168C-121.581 768.971 -97.0337 760.648 -71.9969 754.061C83.2458 709.876 239.071 656.33 398.601 657.612C429.184 658.467 459.667 662.131 488.239 671.009C535.002 685.563 581.605 700.526 628.417 715.249C693.862 735.119 764.195 760.171 835.597 747.792C849.923 745.886 863.917 743.382 877.974 740.658C964.004 723.601 1050.04 709.075 1137.38 701.451C1187.59 696.886 1236.23 719.52 1287.76 726.145C1313.24 730.09 1344.02 721.783 1356.77 697.46C1356.98 697.123 1357.04 696.718 1356.95 696.333C1356.85 695.949 1356.61 695.618 1356.28 695.41C1355.95 695.203 1355.55 695.137 1355.16 695.224C1354.77 695.312 1354.44 695.546 1354.23 695.877C1354.23 695.877 1354.23 695.877 1354.23 695.877C1341.18 718.781 1313.14 725.407 1288.38 721.069C1238.4 713.377 1190.41 688.81 1136.62 691.885C1048.85 696.972 961.437 709.249 875.026 724.678C861.095 727.105 847.333 729.309 833.497 730.922C765.834 741.554 700.427 716.967 634.583 696.02C588.104 680.723 541.528 665.212 494.761 650.327C463.587 640.434 431.214 636.526 399.201 635.62C232.952 634.507 77.4138 691.95 -75.7573 741.538C-100.026 748.991 -125.467 758.19 -149 760.168Z" fill="#2B1204"/>
<path d="M561.094 680.893C561.427 682.984 562.572 684.861 564.283 686.111C565.994 687.361 568.13 687.881 570.222 687.557C572.314 687.233 574.193 686.091 575.445 684.382C576.698 682.673 577.221 680.537 576.906 678.443C576.906 678.443 576.906 678.443 576.906 678.443C575.097 666.084 578.307 652.486 584.06 640.317C611.534 586.397 673.297 557.148 731.681 537.234C732.615 536.924 733.544 536.613 734.469 536.301C851.043 509.205 917.241 390.634 1031.46 374.167C1032.54 373.963 1033.63 373.763 1034.73 373.567C1119.06 352.864 1196.89 417.231 1284.03 406.094C1298.74 405.41 1313.36 403.865 1328.07 401.664C1328.2 401.644 1328.31 401.573 1328.39 401.468C1328.47 401.363 1328.51 401.231 1328.49 401.101C1328.47 400.972 1328.4 400.854 1328.3 400.774C1328.19 400.694 1328.06 400.657 1327.93 400.673C1327.93 400.673 1327.93 400.673 1327.93 400.673C1313.2 402.485 1298.6 403.633 1283.96 403.919C1197.35 412.901 1122.78 346.063 1033.27 364.769C1032.14 364.943 1031.01 365.121 1029.9 365.304C908.925 381.212 841.216 495.055 729.033 520.193C728.133 520.497 727.229 520.8 726.319 521.102C666.189 542.021 601.154 570.976 569.259 633.403C562.676 647.729 558.555 663.997 561.094 680.893Z" fill="#2B1204"/>
<path d="M702.191 532.295C701.022 533.562 700.408 535.239 700.49 536.961C700.572 538.683 701.342 540.309 702.627 541.477C703.911 542.645 705.603 543.258 707.325 543.176C709.047 543.095 710.658 542.325 711.809 541.041C711.809 541.041 711.809 541.041 711.809 541.041C720.499 531.35 729.21 521.442 737.713 511.484C789.907 448.944 842.708 382.814 864.843 301.851C864.85 301.822 864.857 301.793 864.864 301.764C880.45 210.841 979.117 180.124 1062 167.552C1127.92 154.895 1188.27 115.822 1225.87 60.5178C1233.47 49.856 1240.46 38.7708 1246.93 27.4193C1247 27.305 1247.01 27.169 1246.98 27.0415C1246.95 26.9139 1246.86 26.8053 1246.75 26.7393C1246.64 26.6732 1246.5 26.6549 1246.37 26.6883C1246.24 26.7216 1246.13 26.8037 1246.07 26.917C1246.07 26.917 1246.07 26.917 1246.07 26.917C1239.43 38.1378 1232.29 49.0733 1224.55 59.5614C1186.14 114.027 1126.25 151.304 1061 162.784C979.318 173.569 873.938 204.096 856.136 299.572C856.129 299.6 856.122 299.628 856.115 299.655C833.793 377.052 780.88 442.207 728.3 503.331C719.736 513.082 710.96 522.79 702.191 532.295Z" fill="#2B1204"/>
<path d="M772.202 510.114C771.513 511.248 771.307 512.604 771.634 513.89C771.961 515.174 772.795 516.283 773.946 516.967C775.097 517.65 776.469 517.853 777.754 517.526C779.039 517.199 780.132 516.369 780.798 515.222C780.798 515.222 780.798 515.222 780.798 515.222C782.925 511.16 792.752 509.476 800.802 509.291C822.628 508.916 845.064 512.838 867.231 516.705C955.821 532.456 1037.71 582.994 1130.7 583.194C1176.97 576.502 1214.41 547.091 1257.47 532.614C1265.86 530.016 1274.67 528.233 1283.5 528.668C1274.68 528.065 1265.8 529.686 1257.32 532.135C1213.86 545.885 1175.62 574.541 1130.3 580.143C1039.81 578.328 958.637 526.554 868.769 508.631C846.398 504.321 824.155 499.867 800.58 499.794C791.689 500.516 780.758 499.013 772.202 510.114Z" fill="#2B1204"/>
<path d="M1041.16 566.801C1040.92 567.421 1040.94 568.106 1041.22 568.709C1041.49 569.311 1042 569.781 1042.63 570.013C1043.26 570.245 1043.95 570.221 1044.56 569.944C1045.16 569.666 1045.62 569.159 1045.84 568.535C1045.84 568.535 1045.84 568.535 1045.84 568.535C1047.31 564.467 1048.89 560.428 1050.58 556.4C1068.27 518.292 1092.15 467.5 1138.86 467.758C1172.97 471.529 1207.35 470.916 1241.42 468.053C1245.78 467.662 1250.19 467.215 1254.5 466.668C1250.18 467.132 1245.77 467.496 1241.4 467.804C1207.31 470.021 1172.94 469.97 1139.14 465.578C1089.51 464.748 1065.08 516.279 1046.22 554.521C1044.42 558.585 1042.73 562.666 1041.16 566.801Z" fill="#2B1204"/>
<path d="M859.196 308.712C857.751 308.514 856.292 308.9 855.138 309.793C853.984 310.685 853.231 312.011 853.044 313.472C852.858 314.932 853.254 316.404 854.147 317.558C855.039 318.712 856.355 319.452 857.804 319.624C857.804 319.624 857.804 319.624 857.804 319.624C866.068 320.602 874.375 321.387 882.797 322.042C982.322 325.843 1095.12 333.562 1177.32 265.919C1209.25 230.75 1256.8 210.319 1304.68 214.276C1312.92 214.72 1321.14 215.731 1329.38 216.661C1329.64 216.69 1329.91 216.612 1330.11 216.448C1330.32 216.283 1330.45 216.045 1330.48 215.784C1330.51 215.523 1330.44 215.26 1330.28 215.052C1330.12 214.844 1329.88 214.708 1329.62 214.675C1329.62 214.675 1329.62 214.675 1329.62 214.675C1321.43 213.601 1313.16 212.431 1304.84 211.831C1256.51 206.88 1206.98 226.96 1173.68 262.417C1094.4 325.753 981.675 317.339 883.707 311.531C875.421 310.737 867.262 309.816 859.196 308.712Z" fill="#2B1204"/>
<path d="M1339.71 721.776L1333.24 710.454L1321.92 712.072C1321.92 712.072 1313.97 715.356 1310.6 719.412C1307.73 722.875 1306.4 731.965 1306.4 731.965C1306.4 731.965 1311.76 736.808 1317.07 737.949C1323.52 739.335 1333.24 733.097 1333.24 733.097L1339.71 721.776Z" fill="#FFF6F2"/>
<path d="M1351.04 721.776H1339.71L1333.24 733.097C1333.24 733.097 1332.57 741.49 1334.86 746.036C1337.49 751.235 1346.18 755.74 1346.18 755.74C1346.18 755.74 1354.53 751.043 1357.5 746.036C1360.16 741.558 1360.74 733.097 1360.74 733.097L1351.04 721.776Z" fill="#FFF6F2"/>
<path d="M1357.5 710.454L1351.04 721.776L1360.74 733.097C1360.74 733.097 1368.64 735.465 1373.68 734.715C1378.44 734.005 1385 729.862 1385 729.862C1385 729.862 1383.01 722.407 1380.15 718.541C1377.21 714.577 1370.44 710.454 1370.44 710.454H1357.5Z" fill="#FFF6F2"/>
<path d="M1351.04 699.133L1357.5 710.454H1370.44C1370.44 710.454 1378.96 707.022 1381.77 702.367C1384.72 697.468 1383.38 687.811 1383.38 687.811C1383.38 687.811 1375.65 684.309 1370.44 684.576C1365.05 684.854 1357.5 689.428 1357.5 689.428L1351.04 699.133Z" fill="#FFF6F2"/>
<path d="M1339.71 699.133H1351.04L1357.5 689.428C1357.5 689.428 1358.3 680.022 1355.89 674.872C1353.21 669.151 1344.57 665.168 1344.57 665.168C1344.57 665.168 1335.92 669.151 1333.24 674.872C1330.84 680.022 1331.63 689.428 1331.63 689.428L1339.71 699.133Z" fill="#FFF6F2"/>
<path d="M1333.24 710.454L1339.71 699.133L1331.63 689.428C1331.63 689.428 1323.3 684.316 1317.72 685.547C1311.9 686.829 1303 692.34 1303 692.34C1303 692.34 1306.77 703.867 1310.6 707.219C1314.22 710.387 1321.92 712.072 1321.92 712.072L1333.24 710.454Z" fill="#FFF6F2"/>
<path d="M1333.24 710.454C1335.77 714.875 1337.19 717.354 1339.71 721.776M1333.24 710.454C1335.77 706.033 1337.19 703.554 1339.71 699.133M1333.24 710.454C1328.82 711.086 1321.92 712.072 1321.92 712.072M1333.24 710.454C1335.77 714.875 1339.71 721.776 1339.71 721.776M1333.24 710.454L1339.71 721.776M1333.24 710.454L1321.92 712.072M1333.24 710.454L1339.71 699.133M1339.71 721.776C1344.14 721.776 1351.04 721.776 1351.04 721.776M1339.71 721.776C1337.19 726.197 1333.24 733.097 1333.24 733.097M1339.71 721.776H1351.04M1339.71 721.776L1333.24 733.097M1351.04 721.776L1357.5 710.454M1351.04 721.776L1360.74 733.097M1357.5 710.454L1351.04 699.133M1357.5 710.454H1370.44M1351.04 699.133C1351.04 699.133 1344.14 699.133 1339.71 699.133M1351.04 699.133L1357.5 689.428M1351.04 699.133H1339.71M1339.71 699.133C1336.56 695.343 1331.63 689.428 1331.63 689.428M1339.71 699.133L1331.63 689.428M1357.5 689.428C1357.5 689.428 1358.3 680.022 1355.89 674.872C1353.21 669.151 1344.57 665.168 1344.57 665.168C1344.57 665.168 1335.92 669.151 1333.24 674.872C1330.84 680.022 1331.63 689.428 1331.63 689.428M1357.5 689.428C1357.5 689.428 1365.05 684.854 1370.44 684.576C1375.65 684.309 1383.38 687.811 1383.38 687.811C1383.38 687.811 1384.72 697.468 1381.77 702.367C1378.96 707.022 1370.44 710.454 1370.44 710.454M1370.44 710.454C1370.44 710.454 1377.21 714.577 1380.15 718.541C1383.01 722.407 1385 729.862 1385 729.862C1385 729.862 1378.44 734.005 1373.68 734.715C1368.64 735.465 1360.74 733.097 1360.74 733.097M1360.74 733.097C1360.74 733.097 1360.16 741.558 1357.5 746.036C1354.53 751.043 1346.18 755.74 1346.18 755.74C1346.18 755.74 1337.49 751.235 1334.86 746.036C1332.57 741.49 1333.24 733.097 1333.24 733.097M1333.24 733.097C1333.24 733.097 1323.52 739.335 1317.07 737.949C1311.76 736.808 1306.4 731.965 1306.4 731.965C1306.4 731.965 1307.73 722.875 1310.6 719.412C1313.97 715.356 1321.92 712.072 1321.92 712.072M1331.63 689.428C1331.63 689.428 1323.3 684.316 1317.72 685.547C1311.9 686.829 1303 692.34 1303 692.34C1303 692.34 1306.77 703.867 1310.6 707.219C1314.22 710.387 1321.92 712.072 1321.92 712.072" stroke="#312721" stroke-width="2.08102"/>
<ellipse cx="1345.54" cy="710.454" rx="13.723" ry="13.723" fill="#312721"/>
<path d="M1346.02 726.304V737.626V743.286M1332.43 718.379L1317.71 727.436M1331.3 702.529L1315.45 696.868M1344.88 692.34V675.357M1359.6 701.397L1376.58 693.472M1358.47 718.379L1373.19 725.172M1359.6 703.661L1374.32 701.397M1357.34 700.265L1368.66 691.207M1359.6 717.247L1372.06 720.643M1357.34 720.643L1368.66 728.568M1348.28 727.436L1351.68 741.022M1342.62 727.436L1340.36 741.022M1333.56 721.776L1323.37 729.701M1329.03 717.247L1317.71 720.643M1329.03 704.793L1315.45 703.661M1331.3 700.265L1321.11 692.34M1347.15 692.34L1348.28 678.754M1342.62 692.34L1340.36 678.754" stroke="#312721" stroke-width="1.04051"/>
<path d="M913.028 719.634L907.032 709.141L896.538 710.64C896.538 710.64 889.163 713.684 886.045 717.443C883.383 720.653 882.148 729.078 882.148 729.078C882.148 729.078 887.118 733.566 892.041 734.624C898.017 735.908 907.032 730.127 907.032 730.127L913.028 719.634Z" fill="#FFF6F2"/>
<path d="M923.521 719.634H913.028L907.032 730.127C907.032 730.127 906.404 737.905 908.531 742.119C910.962 746.937 919.024 751.113 919.024 751.113C919.024 751.113 926.761 746.76 929.517 742.119C931.981 737.968 932.515 730.127 932.515 730.127L923.521 719.634Z" fill="#FFF6F2"/>
<path d="M929.517 709.141L923.521 719.634L932.515 730.127C932.515 730.127 939.839 732.322 944.507 731.626C948.916 730.968 955 727.129 955 727.129C955 727.129 953.156 720.218 950.503 716.636C947.782 712.961 941.509 709.141 941.509 709.141H929.517Z" fill="#FFF6F2"/>
<path d="M923.521 698.647L929.517 709.141H941.509C941.509 709.141 949.404 705.959 952.002 701.645C954.737 697.104 953.501 688.154 953.501 688.154C953.501 688.154 946.33 684.908 941.509 685.156C936.514 685.413 929.517 689.653 929.517 689.653L923.521 698.647Z" fill="#FFF6F2"/>
<path d="M913.028 698.647H923.521L929.517 689.653C929.517 689.653 930.249 680.935 928.018 676.162C925.538 670.859 917.525 667.168 917.525 667.168C917.525 667.168 909.511 670.859 907.032 676.162C904.8 680.935 905.533 689.653 905.533 689.653L913.028 698.647Z" fill="#FFF6F2"/>
<path d="M907.032 709.141L913.028 698.647L905.533 689.653C905.533 689.653 897.818 684.915 892.641 686.056C887.248 687.244 879 692.352 879 692.352C879 692.352 882.493 703.035 886.045 706.143C889.401 709.078 896.538 710.64 896.538 710.64L907.032 709.141Z" fill="#FFF6F2"/>
<path d="M907.032 709.141C909.373 713.238 910.686 715.536 913.028 719.634M907.032 709.141C909.373 705.043 910.686 702.745 913.028 698.647M907.032 709.141C902.934 709.726 896.538 710.64 896.538 710.64M907.032 709.141C909.373 713.238 913.028 719.634 913.028 719.634M907.032 709.141L913.028 719.634M907.032 709.141L896.538 710.64M907.032 709.141L913.028 698.647M913.028 719.634C917.125 719.634 923.521 719.634 923.521 719.634M913.028 719.634C910.686 723.731 907.032 730.127 907.032 730.127M913.028 719.634H923.521M913.028 719.634L907.032 730.127M923.521 719.634L929.517 709.141M923.521 719.634L932.515 730.127M929.517 709.141L923.521 698.647M929.517 709.141H941.509M923.521 698.647C923.521 698.647 917.125 698.647 913.028 698.647M923.521 698.647L929.517 689.653M923.521 698.647H913.028M913.028 698.647C910.101 695.135 905.533 689.653 905.533 689.653M913.028 698.647L905.533 689.653M929.517 689.653C929.517 689.653 930.249 680.935 928.018 676.162C925.538 670.859 917.525 667.168 917.525 667.168C917.525 667.168 909.511 670.859 907.032 676.162C904.8 680.935 905.533 689.653 905.533 689.653M929.517 689.653C929.517 689.653 936.514 685.413 941.509 685.156C946.33 684.908 953.501 688.154 953.501 688.154C953.501 688.154 954.737 697.104 952.002 701.645C949.404 705.959 941.509 709.141 941.509 709.141M941.509 709.141C941.509 709.141 947.782 712.961 950.503 716.636C953.156 720.218 955 727.129 955 727.129C955 727.129 948.916 730.968 944.507 731.626C939.839 732.322 932.515 730.127 932.515 730.127M932.515 730.127C932.515 730.127 931.981 737.968 929.517 742.119C926.761 746.76 919.024 751.113 919.024 751.113C919.024 751.113 910.962 746.937 908.531 742.119C906.404 737.905 907.032 730.127 907.032 730.127M907.032 730.127C907.032 730.127 898.017 735.908 892.041 734.624C887.118 733.566 882.148 729.078 882.148 729.078C882.148 729.078 883.383 720.653 886.045 717.443C889.163 713.684 896.538 710.64 896.538 710.64M905.533 689.653C905.533 689.653 897.818 684.915 892.641 686.056C887.248 687.244 879 692.352 879 692.352C879 692.352 882.493 703.035 886.045 706.143C889.401 709.078 896.538 710.64 896.538 710.64" stroke="#312721" stroke-width="1.92875"/>
<ellipse cx="918.424" cy="709.141" rx="12.7189" ry="12.7189" fill="#312721"/>
<path d="M918.869 723.831V734.324V739.57M906.277 716.486L892.636 724.88M905.227 701.795L890.537 696.549M917.819 692.351V676.612M931.46 700.746L947.2 693.401M930.411 716.486L944.052 722.781M931.46 702.845L945.101 700.746M929.362 699.697L939.855 691.302M931.46 715.436L943.003 718.584M929.362 718.584L939.855 725.929M920.967 724.88L924.115 737.472M915.721 724.88L913.622 737.472M907.326 719.634L897.882 726.979M903.129 715.436L892.636 718.584M903.129 703.894L890.537 702.845M905.227 699.697L895.784 692.351M919.918 692.351L920.967 679.76M915.721 692.351L913.622 679.76" stroke="#312721" stroke-width="0.964376"/>
<path d="M959.538 697.543L955.038 689.668L947.163 690.793C947.163 690.793 941.627 693.078 939.288 695.899C937.289 698.308 936.363 704.631 936.363 704.631C936.363 704.631 940.093 707.999 943.788 708.793C948.272 709.757 955.038 705.418 955.038 705.418L959.538 697.543Z" fill="#FFF6F2"/>
<path d="M967.412 697.543H959.538L955.038 705.418C955.038 705.418 954.567 711.256 956.163 714.418C957.987 718.034 964.037 721.168 964.037 721.168C964.037 721.168 969.845 717.901 971.912 714.418C973.762 711.303 974.163 705.418 974.163 705.418L967.412 697.543Z" fill="#FFF6F2"/>
<path d="M971.912 689.668L967.412 697.543L974.163 705.418C974.163 705.418 979.659 707.065 983.162 706.543C986.472 706.05 991.037 703.168 991.037 703.168C991.037 703.168 989.654 697.982 987.662 695.293C985.62 692.536 980.913 689.668 980.913 689.668H971.912Z" fill="#FFF6F2"/>
<path d="M967.412 681.793L971.912 689.668H980.913C980.913 689.668 986.838 687.281 988.788 684.043C990.84 680.635 989.912 673.918 989.912 673.918C989.912 673.918 984.531 671.482 980.913 671.668C977.164 671.861 971.912 675.043 971.912 675.043L967.412 681.793Z" fill="#FFF6F2"/>
<path d="M959.538 681.793H967.412L971.912 675.043C971.912 675.043 972.462 668.5 970.787 664.918C968.927 660.938 962.913 658.168 962.913 658.168C962.913 658.168 956.898 660.938 955.038 664.918C953.363 668.5 953.913 675.043 953.913 675.043L959.538 681.793Z" fill="#FFF6F2"/>
<path d="M955.038 689.668L959.538 681.793L953.913 675.043C953.913 675.043 948.123 671.487 944.238 672.343C940.19 673.235 934 677.068 934 677.068C934 677.068 936.622 685.086 939.288 687.418C941.806 689.621 947.163 690.793 947.163 690.793L955.038 689.668Z" fill="#FFF6F2"/>
<path d="M955.038 689.668C956.795 692.744 957.78 694.468 959.538 697.543M955.038 689.668C956.795 686.593 957.78 684.869 959.538 681.793M955.038 689.668C951.962 690.108 947.163 690.793 947.163 690.793M955.038 689.668C956.795 692.744 959.538 697.543 959.538 697.543M955.038 689.668L959.538 697.543M955.038 689.668L947.163 690.793M955.038 689.668L959.538 681.793M959.538 697.543C962.613 697.543 967.412 697.543 967.412 697.543M959.538 697.543C957.78 700.619 955.038 705.418 955.038 705.418M959.538 697.543H967.412M959.538 697.543L955.038 705.418M967.412 697.543L971.912 689.668M967.412 697.543L974.163 705.418M971.912 689.668L967.412 681.793M971.912 689.668H980.913M967.412 681.793C967.412 681.793 962.613 681.793 959.538 681.793M967.412 681.793L971.912 675.043M967.412 681.793H959.538M959.538 681.793C957.341 679.157 953.913 675.043 953.913 675.043M959.538 681.793L953.913 675.043M971.912 675.043C971.912 675.043 972.462 668.5 970.787 664.918C968.927 660.938 962.913 658.168 962.913 658.168C962.913 658.168 956.898 660.938 955.038 664.918C953.363 668.5 953.913 675.043 953.913 675.043M971.912 675.043C971.912 675.043 977.164 671.861 980.913 671.668C984.531 671.482 989.912 673.918 989.912 673.918C989.912 673.918 990.84 680.635 988.788 684.043C986.838 687.281 980.913 689.668 980.913 689.668M980.913 689.668C980.913 689.668 985.62 692.536 987.662 695.293C989.654 697.982 991.037 703.168 991.037 703.168C991.037 703.168 986.472 706.05 983.162 706.543C979.659 707.065 974.163 705.418 974.163 705.418M974.163 705.418C974.163 705.418 973.762 711.303 971.912 714.418C969.845 717.901 964.037 721.168 964.037 721.168C964.037 721.168 957.987 718.034 956.163 714.418C954.567 711.256 955.038 705.418 955.038 705.418M955.038 705.418C955.038 705.418 948.272 709.757 943.788 708.793C940.093 707.999 936.363 704.631 936.363 704.631C936.363 704.631 937.289 698.308 939.288 695.899C941.627 693.078 947.163 690.793 947.163 690.793M953.913 675.043C953.913 675.043 948.123 671.487 944.238 672.343C940.19 673.235 934 677.068 934 677.068C934 677.068 936.622 685.086 939.288 687.418C941.806 689.621 947.163 690.793 947.163 690.793" stroke="#312721" stroke-width="1.44752"/>
<ellipse cx="963.587" cy="689.668" rx="9.54546" ry="9.54545" fill="#312721"/>
<path d="M963.921 700.693V708.568V712.506M954.471 695.181L944.234 701.481M953.684 684.156L942.659 680.218M963.134 677.068V665.255M973.371 683.368L985.184 677.855M972.584 695.181L982.821 699.906M973.371 684.943L983.609 683.368M971.796 682.58L979.671 676.28M973.371 694.393L982.034 696.756M971.796 696.756L979.671 702.268M965.496 701.481L967.859 710.931M961.559 701.481L959.984 710.931M955.259 697.543L948.171 703.056M952.109 694.393L944.234 696.756M952.109 685.731L942.659 684.943M953.684 682.58L946.596 677.068M964.709 677.068L965.496 667.618M961.559 677.068L959.984 667.618" stroke="#312721" stroke-width="0.723758"/>
<path d="M1027.59 550.566L1027.18 538.487L1017.2 534.915C1017.2 534.915 1009.26 534.165 1004.75 536.034C1000.9 537.63 995.872 544.504 995.872 544.504C995.872 544.504 998.172 550.793 1002.03 554.027C1006.72 557.952 1017.39 557.047 1017.39 557.047L1027.59 550.566Z" fill="#FFF6F2"/>
<path d="M1036.87 555.464L1027.59 550.566L1017.39 557.047C1017.39 557.047 1013.2 563.633 1013.12 568.352C1013.02 573.749 1018.2 581.204 1018.2 581.204C1018.2 581.204 1027.07 580.966 1031.68 578.148C1035.79 575.628 1039.93 568.942 1039.93 568.942L1036.87 555.464Z" fill="#FFF6F2"/>
<path d="M1047.07 548.983L1036.87 555.464L1039.93 568.942C1039.93 568.942 1045.38 574.302 1049.83 575.866C1054.04 577.342 1061.21 576.786 1061.21 576.786C1061.21 576.786 1062.8 569.815 1062.13 565.408C1061.44 560.888 1057.68 554.581 1057.68 554.581L1047.07 548.983Z" fill="#FFF6F2"/>
<path d="M1046.66 536.904L1047.07 548.983L1057.68 554.581C1057.68 554.581 1066.14 555.453 1070.45 552.85C1074.99 550.111 1078.08 541.619 1078.08 541.619C1078.08 541.619 1073.25 535.401 1068.87 533.37C1064.33 531.265 1056.17 531.749 1056.17 531.749L1046.66 536.904Z" fill="#FFF6F2"/>
<path d="M1037.39 532.007L1046.66 536.904L1056.17 531.749C1056.17 531.749 1060.88 524.381 1061.14 519.118C1061.42 513.271 1056.06 506.266 1056.06 506.266C1056.06 506.266 1047.25 505.79 1042.58 509.322C1038.38 512.502 1034.95 520.554 1034.95 520.554L1037.39 532.007Z" fill="#FFF6F2"/>
<path d="M1027.18 538.487L1037.39 532.007L1034.95 520.554C1034.95 520.554 1030.34 512.763 1025.23 511.355C1019.91 509.888 1010.23 510.555 1010.23 510.555C1010.23 510.555 1008.33 521.634 1010.02 526.04C1011.62 530.202 1017.2 534.915 1017.2 534.915L1027.18 538.487Z" fill="#FFF6F2"/>
<path d="M1027.18 538.487C1027.34 543.204 1027.43 545.849 1027.59 550.566M1027.18 538.487C1031.17 535.957 1033.4 534.537 1037.39 532.007M1027.18 538.487C1023.29 537.092 1017.2 534.915 1017.2 534.915M1027.18 538.487C1027.34 543.204 1027.59 550.566 1027.59 550.566M1027.18 538.487L1027.59 550.566M1027.18 538.487L1017.2 534.915M1027.18 538.487L1037.39 532.007M1027.59 550.566C1031.21 552.479 1036.87 555.464 1036.87 555.464M1027.59 550.566C1023.61 553.097 1017.39 557.047 1017.39 557.047M1027.59 550.566L1036.87 555.464M1027.59 550.566L1017.39 557.047M1036.87 555.464L1047.07 548.983M1036.87 555.464L1039.93 568.942M1047.07 548.983L1046.66 536.904M1047.07 548.983L1057.68 554.581M1046.66 536.904C1046.66 536.904 1041.01 533.919 1037.39 532.007M1046.66 536.904L1056.17 531.749M1046.66 536.904L1037.39 532.007M1037.39 532.007C1036.44 527.534 1034.95 520.554 1034.95 520.554M1037.39 532.007L1034.95 520.554M1056.17 531.749C1056.17 531.749 1060.88 524.381 1061.14 519.118C1061.42 513.271 1056.06 506.266 1056.06 506.266C1056.06 506.266 1047.25 505.79 1042.58 509.322C1038.38 512.502 1034.95 520.554 1034.95 520.554M1056.17 531.749C1056.17 531.749 1064.33 531.265 1068.87 533.37C1073.25 535.401 1078.08 541.619 1078.08 541.619C1078.08 541.619 1074.99 550.111 1070.45 552.85C1066.14 555.453 1057.68 554.581 1057.68 554.581M1057.68 554.581C1057.68 554.581 1061.44 560.888 1062.13 565.408C1062.8 569.815 1061.21 576.786 1061.21 576.786C1061.21 576.786 1054.04 577.342 1049.83 575.866C1045.38 574.302 1039.93 568.942 1039.93 568.942M1039.93 568.942C1039.93 568.942 1035.79 575.628 1031.68 578.148C1027.07 580.966 1018.2 581.204 1018.2 581.204C1018.2 581.204 1013.02 573.749 1013.12 568.352C1013.2 563.633 1017.39 557.047 1017.39 557.047M1017.39 557.047C1017.39 557.047 1006.72 557.952 1002.03 554.027C998.172 550.793 995.872 544.504 995.872 544.504C995.872 544.504 1000.9 537.63 1004.75 536.034C1009.26 534.165 1017.2 534.915 1017.2 534.915M1034.95 520.554C1034.95 520.554 1030.34 512.763 1025.23 511.355C1019.91 509.888 1010.23 510.555 1010.23 510.555C1010.23 510.555 1008.33 521.634 1010.02 526.04C1011.62 530.202 1017.2 534.915 1017.2 534.915" stroke="#312721" stroke-width="1.92875"/>
<ellipse cx="1037.26" cy="543.805" rx="12.7189" ry="12.7189" transform="rotate(27.8255 1037.26 543.805)" fill="#312721"/>
<path d="M1030.8 557.004L1025.9 566.284L1023.45 570.924M1023.09 544.631L1007.11 545.687M1029.02 531.149L1018.47 519.652M1044.56 528.675L1051.91 514.755M1052.71 542.466L1070.06 543.317M1044.43 555.896L1053.56 567.832M1051.73 544.322L1064.77 548.834M1051.34 540.559L1064.54 538.033M1045.85 555.458L1054.59 563.63M1042.52 557.262L1048.38 568.656M1032.16 558.912L1029.07 571.517M1027.52 556.463L1019.79 566.619M1022.55 547.905L1010.77 549.992M1020.79 542.234L1010.04 540.12M1026.18 532.026L1015.54 525.22M1030 529.293L1025.07 518.389M1046.42 529.655L1053.22 519.009M1042.71 527.696L1046.73 515.58" stroke="#312721" stroke-width="0.964376"/>
<path d="M1319.89 406.273L1320.03 396.969L1312.49 393.846C1312.49 393.846 1306.41 392.97 1302.87 394.237C1299.85 395.319 1295.73 400.416 1295.73 400.416C1295.73 400.416 1297.26 405.339 1300.11 407.971C1303.56 411.166 1311.8 410.872 1311.8 410.872L1319.89 406.273Z" fill="#FFF6F2"/>
<path d="M1326.84 410.389L1319.89 406.273L1311.8 410.872C1311.8 410.872 1308.34 415.779 1308.09 419.404C1307.81 423.55 1311.51 429.479 1311.51 429.479C1311.51 429.479 1318.35 429.63 1321.99 427.637C1325.25 425.854 1328.68 420.868 1328.68 420.868L1326.84 410.389Z" fill="#FFF6F2"/>
<path d="M1334.93 405.79L1326.84 410.389L1328.68 420.868C1328.68 420.868 1332.67 425.195 1336.04 426.565C1339.22 427.86 1344.76 427.702 1344.76 427.702C1344.76 427.702 1346.24 422.401 1345.89 418.987C1345.53 415.486 1342.87 410.494 1342.87 410.494L1334.93 405.79Z" fill="#FFF6F2"/>
<path d="M1335.07 396.486L1334.93 405.79L1342.87 410.494C1342.87 410.494 1349.35 411.483 1352.77 409.645C1356.36 407.709 1359.05 401.295 1359.05 401.295C1359.05 401.295 1355.57 396.332 1352.28 394.605C1348.87 392.816 1342.57 392.88 1342.57 392.88L1335.07 396.486Z" fill="#FFF6F2"/>
<path d="M1328.12 392.37L1335.07 396.486L1342.57 392.88C1342.57 392.88 1346.48 387.392 1346.87 383.354C1347.31 378.869 1343.45 373.28 1343.45 373.28C1343.45 373.28 1336.69 372.582 1332.97 375.122C1329.62 377.409 1326.69 383.472 1326.69 383.472L1328.12 392.37Z" fill="#FFF6F2"/>
<path d="M1320.03 396.969L1328.12 392.37L1326.69 383.472C1326.69 383.472 1323.43 377.307 1319.56 376.032C1315.52 374.703 1308.05 374.851 1308.05 374.851C1308.05 374.851 1306.17 383.299 1307.31 386.751C1308.38 390.012 1312.49 393.846 1312.49 393.846L1320.03 396.969Z" fill="#FFF6F2"/>
<path d="M1320.03 396.969C1319.98 400.603 1319.95 402.64 1319.89 406.273M1320.03 396.969C1323.19 395.173 1324.96 394.166 1328.12 392.37M1320.03 396.969C1317.09 395.75 1312.49 393.846 1312.49 393.846M1320.03 396.969C1319.98 400.603 1319.89 406.273 1319.89 406.273M1320.03 396.969L1319.89 406.273M1320.03 396.969L1312.49 393.846M1320.03 396.969L1328.12 392.37M1319.89 406.273C1322.61 407.88 1326.84 410.389 1326.84 410.389M1319.89 406.273C1316.73 408.069 1311.8 410.872 1311.8 410.872M1319.89 406.273L1326.84 410.389M1319.89 406.273L1311.8 410.872M1326.84 410.389L1334.93 405.79M1326.84 410.389L1328.68 420.868M1334.93 405.79L1335.07 396.486M1334.93 405.79L1342.87 410.494M1335.07 396.486C1335.07 396.486 1330.84 393.977 1328.12 392.37M1335.07 396.486L1342.57 392.88M1335.07 396.486L1328.12 392.37M1328.12 392.37C1327.56 388.895 1326.69 383.472 1326.69 383.472M1328.12 392.37L1326.69 383.472M1342.57 392.88C1342.57 392.88 1346.48 387.392 1346.87 383.354C1347.31 378.869 1343.45 373.28 1343.45 373.28C1343.45 373.28 1336.69 372.582 1332.97 375.122C1329.62 377.409 1326.69 383.472 1326.69 383.472M1342.57 392.88C1342.57 392.88 1348.87 392.816 1352.28 394.605C1355.57 396.332 1359.05 401.295 1359.05 401.295C1359.05 401.295 1356.36 407.709 1352.77 409.645C1349.35 411.483 1342.87 410.494 1342.87 410.494M1342.87 410.494C1342.87 410.494 1345.53 415.486 1345.89 418.987C1346.24 422.401 1344.76 427.702 1344.76 427.702C1344.76 427.702 1339.22 427.86 1336.04 426.565C1332.67 425.195 1328.68 420.868 1328.68 420.868M1328.68 420.868C1328.68 420.868 1325.25 425.854 1321.99 427.637C1318.35 429.63 1311.51 429.479 1311.51 429.479C1311.51 429.479 1307.81 423.55 1308.09 419.404C1308.34 415.779 1311.8 410.872 1311.8 410.872M1311.8 410.872C1311.8 410.872 1303.56 411.166 1300.11 407.971C1297.26 405.339 1295.73 400.416 1295.73 400.416C1295.73 400.416 1299.85 395.319 1302.87 394.237C1306.41 392.97 1312.49 393.846 1312.49 393.846M1326.69 383.472C1326.69 383.472 1323.43 377.307 1319.56 376.032C1315.52 374.703 1308.05 374.851 1308.05 374.851C1308.05 374.851 1306.17 383.299 1307.31 386.751C1308.38 390.012 1312.49 393.846 1312.49 393.846" stroke="#312721" stroke-width="1.48493"/>
<ellipse cx="1327.58" cy="401.438" rx="9.7922" ry="9.7922" transform="rotate(30.6311 1327.58 401.438)" fill="#312721"/>
<path d="M1322.11 411.344L1318 418.296L1315.94 421.771M1316.65 401.539L1304.32 401.749M1321.72 391.396L1314.05 382.157M1333.77 390.079L1339.94 379.652M1339.51 400.991L1352.82 402.299M1332.64 411.006L1339.21 420.528M1338.69 402.381L1348.55 406.342M1338.53 399.472L1348.78 398.027M1333.75 410.723L1340.16 417.336M1331.12 411.985L1335.19 420.967M1323.09 412.863L1320.24 422.439M1319.62 410.805L1313.29 418.323M1316.11 404.036L1306.98 405.198M1314.98 399.609L1306.79 397.578M1319.51 391.963L1311.58 386.328M1322.54 390.005L1319.17 381.435M1335.16 390.902L1340.79 382.972M1332.38 389.256L1335.93 380.091" stroke="#312721" stroke-width="0.742466"/>
<path d="M1232.71 48.1029L1225.92 41.7367L1218.54 45.2129C1218.54 45.2129 1213.8 49.1212 1212.35 52.5926C1211.12 55.557 1212.12 62.0364 1212.12 62.0364C1212.12 62.0364 1216.79 64.2154 1220.65 63.8806C1225.34 63.4743 1230.67 57.1811 1230.67 57.1811L1232.71 48.1029Z" fill="#FFF6F2"/>
<path d="M1240.43 45.7299L1232.71 48.1029L1230.67 57.1811C1230.67 57.1811 1231.96 63.0475 1234.48 65.6674C1237.36 68.6634 1244.24 69.9134 1244.24 69.9134C1244.24 69.9134 1248.95 64.9598 1249.93 60.9214C1250.8 57.3094 1249.42 51.4181 1249.42 51.4181L1240.43 45.7299Z" fill="#FFF6F2"/>
<path d="M1242.47 36.6517L1240.43 45.7299L1249.42 51.4181C1249.42 51.4181 1255.31 51.377 1258.58 49.8092C1261.68 48.3282 1265.29 44.1267 1265.29 44.1267C1265.29 44.1267 1262.37 39.4581 1259.61 37.4215C1256.77 35.3329 1251.29 33.9397 1251.29 33.9397L1242.47 36.6517Z" fill="#FFF6F2"/>
<path d="M1235.68 30.2856L1242.47 36.6517L1251.29 33.9397C1251.29 33.9397 1256.38 29.8131 1257.32 26.0509C1258.31 22.0904 1255.37 15.7833 1255.37 15.7833C1255.37 15.7833 1249.36 15.0164 1245.87 16.289C1242.25 17.6076 1238.06 22.3104 1238.06 22.3104L1235.68 30.2856Z" fill="#FFF6F2"/>
<path d="M1227.96 32.6586L1235.68 30.2856L1238.06 22.3104C1238.06 22.3104 1236.63 15.7288 1233.91 12.721C1230.88 9.37906 1224.15 8.47503 1224.15 8.47503C1224.15 8.47503 1219.09 13.0037 1218.46 17.4671C1217.9 21.484 1220.41 27.7344 1220.41 27.7344L1227.96 32.6586Z" fill="#FFF6F2"/>
<path d="M1225.92 41.7367L1227.96 32.6586L1220.41 27.7344C1220.41 27.7344 1213.66 25.9923 1210.11 28.0024C1206.41 30.0966 1201.49 35.7207 1201.49 35.7207C1201.49 35.7207 1206.48 42.7928 1209.8 44.2764C1212.93 45.6779 1218.54 45.2129 1218.54 45.2129L1225.92 41.7367Z" fill="#FFF6F2"/>
<path d="M1225.92 41.7367C1228.57 44.2229 1230.06 45.6168 1232.71 48.1029M1225.92 41.7367C1226.72 38.1915 1227.16 36.2038 1227.96 32.6586M1225.92 41.7367C1223.04 43.0943 1218.54 45.2129 1218.54 45.2129M1225.92 41.7367C1228.57 44.2229 1232.71 48.1029 1232.71 48.1029M1225.92 41.7367L1232.71 48.1029M1225.92 41.7367L1218.54 45.2129M1225.92 41.7367L1227.96 32.6586M1232.71 48.1029C1235.72 47.1762 1240.43 45.7299 1240.43 45.7299M1232.71 48.1029C1231.91 51.6482 1230.67 57.1811 1230.67 57.1811M1232.71 48.1029L1240.43 45.7299M1232.71 48.1029L1230.67 57.1811M1240.43 45.7299L1242.47 36.6517M1240.43 45.7299L1249.42 51.4181M1242.47 36.6517L1235.68 30.2856M1242.47 36.6517L1251.29 33.9397M1235.68 30.2856C1235.68 30.2856 1230.98 31.7318 1227.96 32.6586M1235.68 30.2856L1238.06 22.3104M1235.68 30.2856L1227.96 32.6586M1227.96 32.6586C1225.01 30.7356 1220.41 27.7344 1220.41 27.7344M1227.96 32.6586L1220.41 27.7344M1238.06 22.3104C1238.06 22.3104 1236.63 15.7288 1233.91 12.721C1230.88 9.37906 1224.15 8.47503 1224.15 8.47503C1224.15 8.47503 1219.09 13.0037 1218.46 17.4671C1217.9 21.484 1220.41 27.7344 1220.41 27.7344M1238.06 22.3104C1238.06 22.3104 1242.25 17.6076 1245.87 16.289C1249.36 15.0164 1255.37 15.7833 1255.37 15.7833C1255.37 15.7833 1258.31 22.0904 1257.32 26.0509C1256.38 29.8131 1251.29 33.9397 1251.29 33.9397M1251.29 33.9397C1251.29 33.9397 1256.77 35.3329 1259.61 37.4215C1262.37 39.4581 1265.29 44.1267 1265.29 44.1267C1265.29 44.1267 1261.68 48.3282 1258.58 49.8092C1255.31 51.377 1249.42 51.4181 1249.42 51.4181M1249.42 51.4181C1249.42 51.4181 1250.8 57.3094 1249.93 60.9214C1248.95 64.9598 1244.24 69.9134 1244.24 69.9134C1244.24 69.9134 1237.36 68.6634 1234.48 65.6674C1231.96 63.0475 1230.67 57.1811 1230.67 57.1811M1230.67 57.1811C1230.67 57.1811 1225.34 63.4743 1220.65 63.8806C1216.79 64.2154 1212.12 62.0364 1212.12 62.0364C1212.12 62.0364 1211.12 55.557 1212.35 52.5926C1213.8 49.1212 1218.54 45.2129 1218.54 45.2129M1220.41 27.7344C1220.41 27.7344 1213.66 25.9923 1210.11 28.0024C1206.41 30.0966 1201.49 35.7207 1201.49 35.7207C1201.49 35.7207 1206.48 42.7928 1209.8 44.2764C1212.93 45.6779 1218.54 45.2129 1218.54 45.2129" stroke="#312721" stroke-width="1.48493"/>
<ellipse cx="1234.3" cy="39.1604" rx="9.7922" ry="9.7922" transform="rotate(-17.0821 1234.3 39.1604)" fill="#312721"/>
<path d="M1237.95 49.8707L1240.33 57.5929L1241.51 61.454M1227.03 47.3128L1218.89 56.5755M1222.93 36.7391L1210.93 36.2002M1230.06 26.9415L1226.5 15.3582M1242 30.0343L1251.92 21.0692M1244.79 41.8549L1256.25 43.4033M1242.47 31.5787L1252.04 26.9494M1240.22 29.7367L1246.04 21.1859M1245.32 40.8454L1254.53 40.5517M1244.49 43.6366L1253.87 46.6692M1239.74 50.1684L1244.9 58.7231M1235.87 51.3549L1237.18 61.0961M1228.51 49.3922L1223.22 56.9334M1224.47 47.2525L1217.46 51.9422M1221.86 38.7581L1212.36 40.8335M1222.46 35.1946L1213.85 31.9248M1231.61 26.4669L1229.53 16.9629M1228.52 27.4161L1224.13 18.624" stroke="#312721" stroke-width="0.742466"/>
<path d="M1307.2 226.561L1302.58 218.482L1294.5 219.636C1294.5 219.636 1288.82 221.98 1286.42 224.874C1284.37 227.345 1283.42 233.832 1283.42 233.832C1283.42 233.832 1287.25 237.287 1291.04 238.102C1295.64 239.09 1302.58 234.639 1302.58 234.639L1307.2 226.561Z" fill="#FFF6F2"/>
<path d="M1315.28 226.561H1307.2L1302.58 234.639C1302.58 234.639 1302.1 240.628 1303.74 243.872C1305.61 247.582 1311.81 250.797 1311.81 250.797C1311.81 250.797 1317.77 247.445 1319.89 243.872C1321.79 240.676 1322.2 234.639 1322.2 234.639L1315.28 226.561Z" fill="#FFF6F2"/>
<path d="M1319.89 218.482L1315.28 226.561L1322.2 234.639C1322.2 234.639 1327.84 236.329 1331.43 235.794C1334.83 235.287 1339.51 232.331 1339.51 232.331C1339.51 232.331 1338.09 227.011 1336.05 224.253C1333.95 221.424 1329.13 218.482 1329.13 218.482H1319.89Z" fill="#FFF6F2"/>
<path d="M1315.28 210.404L1319.89 218.482H1329.13C1329.13 218.482 1335.2 216.033 1337.2 212.712C1339.31 209.216 1338.36 202.325 1338.36 202.325C1338.36 202.325 1332.84 199.826 1329.13 200.017C1325.28 200.215 1319.89 203.479 1319.89 203.479L1315.28 210.404Z" fill="#FFF6F2"/>
<path d="M1307.2 210.404H1315.28L1319.89 203.479C1319.89 203.479 1320.46 196.767 1318.74 193.093C1316.83 189.01 1310.66 186.168 1310.66 186.168C1310.66 186.168 1304.49 189.01 1302.58 193.093C1300.86 196.767 1301.43 203.479 1301.43 203.479L1307.2 210.404Z" fill="#FFF6F2"/>
<path d="M1302.58 218.482L1307.2 210.404L1301.43 203.479C1301.43 203.479 1295.49 199.831 1291.5 200.71C1287.35 201.624 1281 205.557 1281 205.557C1281 205.557 1283.69 213.782 1286.42 216.174C1289.01 218.434 1294.5 219.636 1294.5 219.636L1302.58 218.482Z" fill="#FFF6F2"/>
<path d="M1302.58 218.482C1304.38 221.637 1305.39 223.406 1307.2 226.561M1302.58 218.482C1304.38 215.327 1305.39 213.559 1307.2 210.404M1302.58 218.482C1299.43 218.933 1294.5 219.636 1294.5 219.636M1302.58 218.482C1304.38 221.637 1307.2 226.561 1307.2 226.561M1302.58 218.482L1307.2 226.561M1302.58 218.482L1294.5 219.636M1302.58 218.482L1307.2 210.404M1307.2 226.561C1310.35 226.561 1315.28 226.561 1315.28 226.561M1307.2 226.561C1305.39 229.716 1302.58 234.639 1302.58 234.639M1307.2 226.561H1315.28M1307.2 226.561L1302.58 234.639M1315.28 226.561L1319.89 218.482M1315.28 226.561L1322.2 234.639M1319.89 218.482L1315.28 210.404M1319.89 218.482H1329.13M1315.28 210.404C1315.28 210.404 1310.35 210.404 1307.2 210.404M1315.28 210.404L1319.89 203.479M1315.28 210.404H1307.2M1307.2 210.404C1304.94 207.699 1301.43 203.479 1301.43 203.479M1307.2 210.404L1301.43 203.479M1319.89 203.479C1319.89 203.479 1320.46 196.767 1318.74 193.093C1316.83 189.01 1310.66 186.168 1310.66 186.168C1310.66 186.168 1304.49 189.01 1302.58 193.093C1300.86 196.767 1301.43 203.479 1301.43 203.479M1319.89 203.479C1319.89 203.479 1325.28 200.215 1329.13 200.017C1332.84 199.826 1338.36 202.325 1338.36 202.325C1338.36 202.325 1339.31 209.216 1337.2 212.712C1335.2 216.033 1329.13 218.482 1329.13 218.482M1329.13 218.482C1329.13 218.482 1333.95 221.424 1336.05 224.253C1338.09 227.011 1339.51 232.331 1339.51 232.331C1339.51 232.331 1334.83 235.287 1331.43 235.794C1327.84 236.329 1322.2 234.639 1322.2 234.639M1322.2 234.639C1322.2 234.639 1321.79 240.676 1319.89 243.872C1317.77 247.445 1311.81 250.797 1311.81 250.797C1311.81 250.797 1305.61 247.582 1303.74 243.872C1302.1 240.628 1302.58 234.639 1302.58 234.639M1302.58 234.639C1302.58 234.639 1295.64 239.09 1291.04 238.102C1287.25 237.287 1283.42 233.832 1283.42 233.832C1283.42 233.832 1284.37 227.345 1286.42 224.874C1288.82 221.98 1294.5 219.636 1294.5 219.636M1301.43 203.479C1301.43 203.479 1295.49 199.831 1291.5 200.71C1287.35 201.624 1281 205.557 1281 205.557C1281 205.557 1283.69 213.782 1286.42 216.174C1289.01 218.434 1294.5 219.636 1294.5 219.636" stroke="#312721" stroke-width="1.48493"/>
<ellipse cx="1311.35" cy="218.482" rx="9.7922" ry="9.7922" fill="#312721"/>
<path d="M1311.69 229.792V237.871V241.91M1302 224.137L1291.5 230.6M1301.19 212.827L1289.88 208.788M1310.89 205.556V193.439M1321.39 212.019L1333.51 206.364M1320.58 224.137L1331.08 228.984M1321.39 213.635L1331.89 212.019M1319.77 211.211L1327.85 204.749M1321.39 223.329L1330.28 225.753M1319.77 225.753L1327.85 231.408M1313.31 230.6L1315.73 240.294M1309.27 230.6L1307.66 240.294M1302.81 226.561L1295.54 232.216M1299.58 223.329L1291.5 225.753M1299.58 214.443L1289.88 213.635M1301.19 211.211L1293.92 205.556M1312.5 205.556L1313.31 195.862M1309.27 205.556L1307.66 195.862" stroke="#312721" stroke-width="0.742466"/>
<path d="M874.198 271.561L869.581 263.482L861.503 264.636C861.503 264.636 855.825 266.98 853.424 269.874C851.374 272.345 850.424 278.832 850.424 278.832C850.424 278.832 854.25 282.287 858.04 283.102C862.641 284.09 869.581 279.639 869.581 279.639L874.198 271.561Z" fill="#FFF6F2"/>
<path d="M882.276 271.561H874.198L869.581 279.639C869.581 279.639 869.098 285.628 870.735 288.872C872.608 292.582 878.814 295.797 878.814 295.797C878.814 295.797 884.771 292.445 886.892 288.872C888.79 285.676 889.201 279.639 889.201 279.639L882.276 271.561Z" fill="#FFF6F2"/>
<path d="M886.892 263.482L882.276 271.561L889.201 279.639C889.201 279.639 894.839 281.329 898.433 280.794C901.828 280.287 906.512 277.331 906.512 277.331C906.512 277.331 905.092 272.011 903.05 269.253C900.955 266.424 896.125 263.482 896.125 263.482H886.892Z" fill="#FFF6F2"/>
<path d="M882.276 255.404L886.892 263.482H896.125C896.125 263.482 902.204 261.033 904.204 257.712C906.309 254.216 905.358 247.325 905.358 247.325C905.358 247.325 899.837 244.826 896.125 245.017C892.279 245.215 886.892 248.479 886.892 248.479L882.276 255.404Z" fill="#FFF6F2"/>
<path d="M874.198 255.404H882.276L886.892 248.479C886.892 248.479 887.456 241.767 885.738 238.093C883.83 234.01 877.66 231.168 877.66 231.168C877.66 231.168 871.49 234.01 869.581 238.093C867.863 241.767 868.427 248.479 868.427 248.479L874.198 255.404Z" fill="#FFF6F2"/>
<path d="M869.581 263.482L874.198 255.404L868.427 248.479C868.427 248.479 862.488 244.831 858.502 245.71C854.35 246.624 848 250.557 848 250.557C848 250.557 850.689 258.782 853.424 261.174C856.008 263.434 861.503 264.636 861.503 264.636L869.581 263.482Z" fill="#FFF6F2"/>
<path d="M869.581 263.482C871.384 266.637 872.395 268.406 874.198 271.561M869.581 263.482C871.384 260.327 872.395 258.559 874.198 255.404M869.581 263.482C866.426 263.933 861.503 264.636 861.503 264.636M869.581 263.482C871.384 266.637 874.198 271.561 874.198 271.561M869.581 263.482L874.198 271.561M869.581 263.482L861.503 264.636M869.581 263.482L874.198 255.404M874.198 271.561C877.352 271.561 882.276 271.561 882.276 271.561M874.198 271.561C872.395 274.716 869.581 279.639 869.581 279.639M874.198 271.561H882.276M874.198 271.561L869.581 279.639M882.276 271.561L886.892 263.482M882.276 271.561L889.201 279.639M886.892 263.482L882.276 255.404M886.892 263.482H896.125M882.276 255.404C882.276 255.404 877.352 255.404 874.198 255.404M882.276 255.404L886.892 248.479M882.276 255.404H874.198M874.198 255.404C871.944 252.699 868.427 248.479 868.427 248.479M874.198 255.404L868.427 248.479M886.892 248.479C886.892 248.479 887.456 241.767 885.738 238.093C883.83 234.01 877.66 231.168 877.66 231.168C877.66 231.168 871.49 234.01 869.581 238.093C867.863 241.767 868.427 248.479 868.427 248.479M886.892 248.479C886.892 248.479 892.279 245.215 896.125 245.017C899.837 244.826 905.358 247.325 905.358 247.325C905.358 247.325 906.309 254.216 904.204 257.712C902.204 261.033 896.125 263.482 896.125 263.482M896.125 263.482C896.125 263.482 900.955 266.424 903.05 269.253C905.092 272.011 906.512 277.331 906.512 277.331C906.512 277.331 901.828 280.287 898.433 280.794C894.839 281.329 889.201 279.639 889.201 279.639M889.201 279.639C889.201 279.639 888.79 285.676 886.892 288.872C884.771 292.445 878.814 295.797 878.814 295.797C878.814 295.797 872.608 292.582 870.735 288.872C869.098 285.628 869.581 279.639 869.581 279.639M869.581 279.639C869.581 279.639 862.641 284.09 858.04 283.102C854.25 282.287 850.424 278.832 850.424 278.832C850.424 278.832 851.374 272.345 853.424 269.874C855.825 266.98 861.503 264.636 861.503 264.636M868.427 248.479C868.427 248.479 862.488 244.831 858.502 245.71C854.35 246.624 848 250.557 848 250.557C848 250.557 850.689 258.782 853.424 261.174C856.008 263.434 861.503 264.636 861.503 264.636" stroke="#312721" stroke-width="1.48493"/>
<ellipse cx="878.352" cy="263.482" rx="9.7922" ry="9.7922" fill="#312721"/>
<path d="M878.695 274.792V282.871V286.91M869 269.137L858.498 275.6M868.192 257.827L856.882 253.788M877.887 250.556V238.439M888.389 257.019L900.507 251.364M887.581 269.137L898.083 273.984M888.389 258.635L898.891 257.019M886.773 256.211L894.852 249.749M888.389 268.329L897.275 270.753M886.773 270.753L894.852 276.408M880.31 275.6L882.734 285.294M876.271 275.6L874.655 285.294M869.808 271.561L862.537 277.216M866.577 268.329L858.498 270.753M866.577 259.443L856.882 258.635M868.192 256.211L860.922 250.556M879.502 250.556L880.31 240.862M876.271 250.556L874.655 240.862" stroke="#312721" stroke-width="0.742466"/>
<path d="M1201.2 483.561L1196.58 475.482L1188.5 476.636C1188.5 476.636 1182.82 478.98 1180.42 481.874C1178.37 484.346 1177.42 490.832 1177.42 490.832C1177.42 490.832 1181.25 494.287 1185.04 495.102C1189.64 496.09 1196.58 491.64 1196.58 491.64L1201.2 483.561Z" fill="#FFF6F2"/>
<path d="M1209.28 483.561H1201.2L1196.58 491.64C1196.58 491.64 1196.1 497.628 1197.74 500.872C1199.61 504.582 1205.81 507.797 1205.81 507.797C1205.81 507.797 1211.77 504.445 1213.89 500.872C1215.79 497.677 1216.2 491.64 1216.2 491.64L1209.28 483.561Z" fill="#FFF6F2"/>
<path d="M1213.89 475.482L1209.28 483.561L1216.2 491.64C1216.2 491.64 1221.84 493.329 1225.43 492.794C1228.83 492.288 1233.51 489.331 1233.51 489.331C1233.51 489.331 1232.09 484.011 1230.05 481.253C1227.95 478.424 1223.13 475.482 1223.13 475.482H1213.89Z" fill="#FFF6F2"/>
<path d="M1209.28 467.404L1213.89 475.482H1223.13C1223.13 475.482 1229.2 473.033 1231.2 469.712C1233.31 466.216 1232.36 459.325 1232.36 459.325C1232.36 459.325 1226.84 456.826 1223.13 457.017C1219.28 457.215 1213.89 460.479 1213.89 460.479L1209.28 467.404Z" fill="#FFF6F2"/>
<path d="M1201.2 467.404H1209.28L1213.89 460.479C1213.89 460.479 1214.46 453.767 1212.74 450.093C1210.83 446.01 1204.66 443.168 1204.66 443.168C1204.66 443.168 1198.49 446.01 1196.58 450.093C1194.86 453.767 1195.43 460.479 1195.43 460.479L1201.2 467.404Z" fill="#FFF6F2"/>
<path d="M1196.58 475.482L1201.2 467.404L1195.43 460.479C1195.43 460.479 1189.49 456.831 1185.5 457.71C1181.35 458.624 1175 462.557 1175 462.557C1175 462.557 1177.69 470.782 1180.42 473.174C1183.01 475.434 1188.5 476.636 1188.5 476.636L1196.58 475.482Z" fill="#FFF6F2"/>
<path d="M1196.58 475.482C1198.38 478.637 1199.39 480.406 1201.2 483.561M1196.58 475.482C1198.38 472.328 1199.39 470.559 1201.2 467.404M1196.58 475.482C1193.43 475.933 1188.5 476.636 1188.5 476.636M1196.58 475.482C1198.38 478.637 1201.2 483.561 1201.2 483.561M1196.58 475.482L1201.2 483.561M1196.58 475.482L1188.5 476.636M1196.58 475.482L1201.2 467.404M1201.2 483.561C1204.35 483.561 1209.28 483.561 1209.28 483.561M1201.2 483.561C1199.39 486.716 1196.58 491.64 1196.58 491.64M1201.2 483.561H1209.28M1201.2 483.561L1196.58 491.64M1209.28 483.561L1213.89 475.482M1209.28 483.561L1216.2 491.64M1213.89 475.482L1209.28 467.404M1213.89 475.482H1223.13M1209.28 467.404C1209.28 467.404 1204.35 467.404 1201.2 467.404M1209.28 467.404L1213.89 460.479M1209.28 467.404H1201.2M1201.2 467.404C1198.94 464.7 1195.43 460.479 1195.43 460.479M1201.2 467.404L1195.43 460.479M1213.89 460.479C1213.89 460.479 1214.46 453.767 1212.74 450.093C1210.83 446.01 1204.66 443.168 1204.66 443.168C1204.66 443.168 1198.49 446.01 1196.58 450.093C1194.86 453.767 1195.43 460.479 1195.43 460.479M1213.89 460.479C1213.89 460.479 1219.28 457.215 1223.13 457.017C1226.84 456.826 1232.36 459.325 1232.36 459.325C1232.36 459.325 1233.31 466.216 1231.2 469.712C1229.2 473.033 1223.13 475.482 1223.13 475.482M1223.13 475.482C1223.13 475.482 1227.95 478.424 1230.05 481.253C1232.09 484.011 1233.51 489.331 1233.51 489.331C1233.51 489.331 1228.83 492.288 1225.43 492.794C1221.84 493.329 1216.2 491.64 1216.2 491.64M1216.2 491.64C1216.2 491.64 1215.79 497.677 1213.89 500.872C1211.77 504.445 1205.81 507.797 1205.81 507.797C1205.81 507.797 1199.61 504.582 1197.74 500.872C1196.1 497.628 1196.58 491.64 1196.58 491.64M1196.58 491.64C1196.58 491.64 1189.64 496.09 1185.04 495.102C1181.25 494.287 1177.42 490.832 1177.42 490.832C1177.42 490.832 1178.37 484.346 1180.42 481.874C1182.82 478.98 1188.5 476.636 1188.5 476.636M1195.43 460.479C1195.43 460.479 1189.49 456.831 1185.5 457.71C1181.35 458.624 1175 462.557 1175 462.557C1175 462.557 1177.69 470.782 1180.42 473.174C1183.01 475.434 1188.5 476.636 1188.5 476.636" stroke="#312721" stroke-width="1.48493"/>
<ellipse cx="1205.35" cy="475.482" rx="9.7922" ry="9.7922" fill="#312721"/>
<path d="M1205.69 486.792V494.871V498.91M1196 481.137L1185.5 487.6M1195.19 469.827L1183.88 465.788M1204.89 462.557V450.439M1215.39 469.019L1227.51 463.364M1214.58 481.137L1225.08 485.984M1215.39 470.635L1225.89 469.019M1213.77 468.212L1221.85 461.749M1215.39 480.329L1224.28 482.753M1213.77 482.753L1221.85 488.408M1207.31 487.6L1209.73 497.294M1203.27 487.6L1201.66 497.294M1196.81 483.561L1189.54 489.216M1193.58 480.329L1185.5 482.753M1193.58 471.443L1183.88 470.635M1195.19 468.212L1187.92 462.557M1206.5 462.557L1207.31 452.862M1203.27 462.557L1201.66 452.862" stroke="#312721" stroke-width="0.742466"/>
<path d="M1183.83 577.976L1182 567.157L1172.59 565.153C1172.59 565.153 1165.35 565.441 1161.52 567.669C1158.25 569.573 1154.56 576.367 1154.56 576.367C1154.56 576.367 1157.39 581.747 1161.26 584.189C1165.95 587.152 1175.44 585.044 1175.44 585.044L1183.83 577.976Z" fill="#FFF6F2"/>
<path d="M1192.78 581.258L1183.83 577.976L1175.44 585.044C1175.44 585.044 1172.47 591.478 1172.97 595.734C1173.53 600.601 1179.1 606.682 1179.1 606.682C1179.1 606.682 1187.05 605.391 1190.85 602.298C1194.25 599.531 1197.16 593.014 1197.16 593.014L1192.78 581.258Z" fill="#FFF6F2"/>
<path d="M1201.17 574.189L1192.78 581.258L1197.16 593.014C1197.16 593.014 1202.72 597.175 1206.91 598.042C1210.88 598.861 1217.26 597.491 1217.26 597.491C1217.26 597.491 1217.85 591.025 1216.71 587.141C1215.54 583.159 1211.39 577.94 1211.39 577.94L1201.17 574.189Z" fill="#FFF6F2"/>
<path d="M1199.34 563.371L1201.17 574.189L1211.39 577.94C1211.39 577.94 1219.11 577.698 1222.68 574.834C1226.43 571.818 1228.17 563.804 1228.17 563.804C1228.17 563.804 1223.08 558.794 1218.89 557.498C1214.55 556.154 1207.26 557.58 1207.26 557.58L1199.34 563.371Z" fill="#FFF6F2"/>
<path d="M1190.4 560.089L1199.34 563.371L1207.26 557.58C1207.26 557.58 1210.61 550.378 1210.2 545.612C1209.75 540.317 1204.07 534.665 1204.07 534.665C1204.07 534.665 1196.09 535.304 1192.32 539.049C1188.92 542.419 1186.82 550.079 1186.82 550.079L1190.4 560.089Z" fill="#FFF6F2"/>
<path d="M1182 567.157L1190.4 560.089L1186.82 550.079C1186.82 550.079 1181.73 543.627 1176.96 542.981C1171.99 542.307 1163.36 544.08 1163.36 544.08C1163.36 544.08 1163 554.278 1165.05 558.038C1167 561.589 1172.59 565.153 1172.59 565.153L1182 567.157Z" fill="#FFF6F2"/>
<path d="M1182 567.157C1182.72 571.382 1183.12 573.751 1183.83 577.976M1182 567.157C1185.28 564.397 1187.12 562.849 1190.4 560.089M1182 567.157C1178.33 566.374 1172.59 565.153 1172.59 565.153M1182 567.157C1182.72 571.382 1183.83 577.976 1183.83 577.976M1182 567.157L1183.83 577.976M1182 567.157L1172.59 565.153M1182 567.157L1190.4 560.089M1183.83 577.976C1187.32 579.257 1192.78 581.258 1192.78 581.258M1183.83 577.976C1180.55 580.736 1175.44 585.044 1175.44 585.044M1183.83 577.976L1192.78 581.258M1183.83 577.976L1175.44 585.044M1192.78 581.258L1201.17 574.189M1192.78 581.258L1197.16 593.014M1201.17 574.189L1199.34 563.371M1201.17 574.189L1211.39 577.94M1199.34 563.371C1199.34 563.371 1193.89 561.37 1190.4 560.089M1199.34 563.371L1207.26 557.58M1199.34 563.371L1190.4 560.089M1190.4 560.089C1189 556.18 1186.82 550.079 1186.82 550.079M1190.4 560.089L1186.82 550.079M1207.26 557.58C1207.26 557.58 1210.61 550.378 1210.2 545.612C1209.75 540.317 1204.07 534.665 1204.07 534.665C1204.07 534.665 1196.09 535.304 1192.32 539.049C1188.92 542.419 1186.82 550.079 1186.82 550.079M1207.26 557.58C1207.26 557.58 1214.55 556.154 1218.89 557.498C1223.08 558.794 1228.17 563.804 1228.17 563.804C1228.17 563.804 1226.43 571.818 1222.68 574.834C1219.11 577.698 1211.39 577.94 1211.39 577.94M1211.39 577.94C1211.39 577.94 1215.54 583.159 1216.71 587.141C1217.85 591.025 1217.26 597.491 1217.26 597.491C1217.26 597.491 1210.88 598.861 1206.91 598.042C1202.72 597.175 1197.16 593.014 1197.16 593.014M1197.16 593.014C1197.16 593.014 1194.25 599.531 1190.85 602.298C1187.05 605.391 1179.1 606.682 1179.1 606.682C1179.1 606.682 1173.53 600.601 1172.97 595.734C1172.47 591.478 1175.44 585.044 1175.44 585.044M1175.44 585.044C1175.44 585.044 1165.95 587.152 1161.26 584.189C1157.39 581.747 1154.56 576.367 1154.56 576.367C1154.56 576.367 1158.25 569.573 1161.52 567.669C1165.35 565.441 1172.59 565.153 1172.59 565.153M1186.82 550.079C1186.82 550.079 1181.73 543.627 1176.96 542.981C1171.99 542.307 1163.36 544.08 1163.36 544.08C1163.36 544.08 1163 554.278 1165.05 558.038C1167 561.589 1172.59 565.153 1172.59 565.153" stroke="#312721" stroke-width="1.7511"/>
<ellipse cx="1191.71" cy="570.72" rx="11.5474" ry="11.5474" transform="rotate(20.1505 1191.71 570.72)" fill="#312721"/>
<path d="M1187.5 583.38L1184.22 592.323L1182.58 596.795M1179.06 573.181L1164.81 576.07M1182.76 560.332L1171.88 551.266M1196.45 556.221L1201.37 542.806M1205.45 567.642L1221.16 566.305M1199.63 580.729L1209.29 590.362M1204.79 569.431L1217.08 571.909M1203.99 566.092L1215.56 562.219M1200.86 580.163L1209.71 586.456M1198.08 582.19L1204.73 591.732M1188.96 584.931L1187.7 596.647M1184.49 583.29L1178.76 593.366M1178.97 576.192L1168.63 579.499M1176.71 571.302L1166.78 570.704M1180.32 561.464L1169.91 556.632M1183.42 558.543L1177.67 549.329M1198.24 556.877L1203.07 546.473M1194.66 555.565L1196.81 544.176" stroke="#312721" stroke-width="0.875552"/>
<path d="M902.044 334.552L891.875 328.32L883.508 334.597C883.508 334.597 878.572 340.732 877.659 345.464C876.879 349.505 879.81 357.38 879.81 357.38C879.81 357.38 886.24 358.904 891.002 357.483C896.781 355.758 901.837 346.477 901.837 346.477L902.044 334.552Z" fill="#FFF6F2"/>
<path d="M911.122 329.572L902.044 334.552L901.837 346.477C901.837 346.477 904.986 353.505 908.826 356.141C913.217 359.155 922.173 358.942 922.173 358.942C922.173 358.942 926.802 351.503 926.983 346.18C927.145 341.419 923.885 334.381 923.885 334.381L911.122 329.572Z" fill="#FFF6F2"/>
<path d="M911.329 317.647L911.122 329.572L923.885 334.381C923.885 334.381 931.263 332.804 934.972 329.986C938.475 327.324 941.916 321.114 941.916 321.114C941.916 321.114 937.04 316.011 933.044 314.17C928.946 312.283 921.705 311.955 921.705 311.955L911.329 317.647Z" fill="#FFF6F2"/>
<path d="M901.161 311.415L911.329 317.647L921.705 311.955C921.705 311.955 927.026 305.455 927.226 300.49C927.437 295.263 922.119 288.106 922.119 288.106C922.119 288.106 914.374 288.701 910.321 291.204C906.121 293.797 902.08 300.787 902.08 300.787L901.161 311.415Z" fill="#FFF6F2"/>
<path d="M892.083 316.395L901.161 311.415L902.08 300.787C902.08 300.787 898.575 292.896 894.379 289.826C889.717 286.415 881.031 287.025 881.031 287.025C881.031 287.025 875.85 294.022 876.222 299.787C876.557 304.976 881.329 312.171 881.329 312.171L892.083 316.395Z" fill="#FFF6F2"/>
<path d="M891.875 328.32L892.083 316.395L881.329 312.171C881.329 312.171 872.405 311.734 868.468 315.178C864.365 318.766 859.654 327.1 859.654 327.1C859.654 327.1 867.747 334.685 872.295 335.687C876.592 336.634 883.508 334.597 883.508 334.597L891.875 328.32Z" fill="#FFF6F2"/>
<path d="M891.875 328.32C895.846 330.754 898.073 332.118 902.044 334.552M891.875 328.32C891.956 323.663 892.002 321.052 892.083 316.395M891.875 328.32C888.608 330.771 883.508 334.597 883.508 334.597M891.875 328.32C895.846 330.754 902.044 334.552 902.044 334.552M891.875 328.32L902.044 334.552M891.875 328.32L883.508 334.597M891.875 328.32L892.083 316.395M902.044 334.552C905.589 332.607 911.122 329.572 911.122 329.572M902.044 334.552C901.963 339.209 901.837 346.477 901.837 346.477M902.044 334.552L911.122 329.572M902.044 334.552L901.837 346.477M911.122 329.572L911.329 317.647M911.122 329.572L923.885 334.381M911.329 317.647L901.161 311.415M911.329 317.647L921.705 311.955M901.161 311.415C901.161 311.415 895.628 314.45 892.083 316.395M901.161 311.415L902.08 300.787M901.161 311.415L892.083 316.395M892.083 316.395C887.883 314.746 881.329 312.171 881.329 312.171M892.083 316.395L881.329 312.171M902.08 300.787C902.08 300.787 898.575 292.896 894.379 289.826C889.717 286.415 881.031 287.025 881.031 287.025C881.031 287.025 875.85 294.022 876.222 299.787C876.557 304.976 881.329 312.171 881.329 312.171M902.08 300.787C902.08 300.787 906.121 293.797 910.321 291.204C914.374 288.701 922.119 288.106 922.119 288.106C922.119 288.106 927.437 295.263 927.226 300.49C927.026 305.455 921.705 311.955 921.705 311.955M921.705 311.955C921.705 311.955 928.946 312.283 933.044 314.17C937.04 316.011 941.916 321.114 941.916 321.114C941.916 321.114 938.475 327.324 934.972 329.986C931.263 332.804 923.885 334.381 923.885 334.381M923.885 334.381C923.885 334.381 927.145 341.419 926.983 346.18C926.802 351.503 922.173 358.942 922.173 358.942C922.173 358.942 913.217 359.155 908.826 356.141C904.986 353.505 901.837 346.477 901.837 346.477M901.837 346.477C901.837 346.477 896.781 355.758 891.002 357.483C886.24 358.904 879.81 357.38 879.81 357.38C879.81 357.38 876.879 349.505 877.659 345.464C878.572 340.732 883.508 334.597 883.508 334.597M881.329 312.171C881.329 312.171 872.405 311.734 868.468 315.178C864.365 318.766 859.654 327.1 859.654 327.1C859.654 327.1 867.747 334.685 872.295 335.687C876.592 336.634 883.508 334.597 883.508 334.597" stroke="#312721" stroke-width="1.90337"/>
<ellipse cx="901.732" cy="322.912" rx="12.5516" ry="12.5516" transform="rotate(-28.7499 901.732 322.912)" fill="#312721"/>
<path d="M909.09 335.411L914.07 344.49L916.561 349.029M894.709 335.033L886.891 348.771M886.828 322.821L871.628 325.255M893.24 308.674L885.769 295.056M909.026 309.462L919.158 295.636M915.59 323.577L930.38 322.55M910.023 311.277L920.829 302.987M906.713 309.55L911.807 297.306M915.999 322.172L927.48 319.416M915.678 325.891L928.243 327.266M911.403 335.323L920.104 344.723M906.864 337.813L911.025 349.704M897.111 337.258L892.427 348.096M891.487 335.619L883.903 343.324M886.009 325.633L874.616 330.702M885.832 321.005L874.175 319.133M895.056 307.677L889.987 296.285M891.424 309.67L883.632 299.772" stroke="#312721" stroke-width="0.951687"/>
<path d="M1115.27 299.455L1107.25 293.195L1099.55 297.715C1099.55 297.715 1094.78 302.443 1093.55 306.368C1092.5 309.72 1094.23 316.679 1094.23 316.679C1094.23 316.679 1099.54 318.588 1103.71 317.839C1108.78 316.931 1113.95 309.547 1113.95 309.547L1115.27 299.455Z" fill="#FFF6F2"/>
<path d="M1123.45 296.103L1115.27 299.455L1113.95 309.547C1113.95 309.547 1115.95 315.808 1118.95 318.412C1122.39 321.389 1130 322.067 1130 322.067C1130 322.067 1134.64 316.204 1135.3 311.707C1135.9 307.686 1133.81 301.406 1133.81 301.406L1123.45 296.103Z" fill="#FFF6F2"/>
<path d="M1124.77 286.012L1123.45 296.103L1133.81 301.406C1133.81 301.406 1140.22 300.776 1143.63 298.743C1146.86 296.822 1150.37 291.887 1150.37 291.887C1150.37 291.887 1146.73 287.092 1143.51 285.148C1140.22 283.154 1134.11 282.181 1134.11 282.181L1124.77 286.012Z" fill="#FFF6F2"/>
<path d="M1116.75 279.752L1124.77 286.012L1134.11 282.181C1134.11 282.181 1139.25 277.18 1139.89 272.989C1140.57 268.577 1136.75 261.999 1136.75 261.999C1136.75 261.999 1130.13 261.76 1126.45 263.494C1122.64 265.289 1118.54 270.828 1118.54 270.828L1116.75 279.752Z" fill="#FFF6F2"/>
<path d="M1108.57 283.104L1116.75 279.752L1118.54 270.828C1118.54 270.828 1116.33 263.801 1113.07 260.796C1109.44 257.456 1102.02 257.14 1102.02 257.14C1102.02 257.14 1096.95 262.576 1096.71 267.5C1096.5 271.931 1099.86 278.49 1099.86 278.49L1108.57 283.104Z" fill="#FFF6F2"/>
<path d="M1107.25 293.195L1108.57 283.104L1099.86 278.49C1099.86 278.49 1092.33 277.263 1088.66 279.806C1084.84 282.454 1080.05 289.069 1080.05 289.069C1080.05 289.069 1086.18 296.277 1089.94 297.563C1093.49 298.779 1099.55 297.715 1099.55 297.715L1107.25 293.195Z" fill="#FFF6F2"/>
<path d="M1107.25 293.195C1110.38 295.64 1112.14 297.011 1115.27 299.455M1107.25 293.195C1107.76 289.254 1108.05 287.045 1108.57 283.104M1107.25 293.195C1104.24 294.96 1099.55 297.715 1099.55 297.715M1107.25 293.195C1110.38 295.64 1115.27 299.455 1115.27 299.455M1107.25 293.195L1115.27 299.455M1107.25 293.195L1099.55 297.715M1107.25 293.195L1108.57 283.104M1115.27 299.455C1118.47 298.146 1123.45 296.103 1123.45 296.103M1115.27 299.455C1114.76 303.396 1113.95 309.547 1113.95 309.547M1115.27 299.455L1123.45 296.103M1115.27 299.455L1113.95 309.547M1123.45 296.103L1124.77 286.012M1123.45 296.103L1133.81 301.406M1124.77 286.012L1116.75 279.752M1124.77 286.012L1134.11 282.181M1116.75 279.752C1116.75 279.752 1111.76 281.795 1108.57 283.104M1116.75 279.752L1118.54 270.828M1116.75 279.752L1108.57 283.104M1108.57 283.104C1105.17 281.302 1099.86 278.49 1099.86 278.49M1108.57 283.104L1099.86 278.49M1118.54 270.828C1118.54 270.828 1116.33 263.801 1113.07 260.796C1109.44 257.456 1102.02 257.14 1102.02 257.14C1102.02 257.14 1096.95 262.576 1096.71 267.5C1096.5 271.931 1099.86 278.49 1099.86 278.49M1118.54 270.828C1118.54 270.828 1122.64 265.289 1126.45 263.494C1130.13 261.76 1136.75 261.999 1136.75 261.999C1136.75 261.999 1140.57 268.577 1139.89 272.989C1139.25 277.18 1134.11 282.181 1134.11 282.181M1134.11 282.181C1134.11 282.181 1140.22 283.154 1143.51 285.148C1146.73 287.092 1150.37 291.887 1150.37 291.887C1150.37 291.887 1146.86 296.822 1143.63 298.743C1140.22 300.776 1133.81 301.406 1133.81 301.406M1133.81 301.406C1133.81 301.406 1135.9 307.686 1135.3 311.707C1134.64 316.204 1130 322.067 1130 322.067C1130 322.067 1122.39 321.389 1118.95 318.412C1115.95 315.808 1113.95 309.547 1113.95 309.547M1113.95 309.547C1113.95 309.547 1108.78 316.931 1103.71 317.839C1099.54 318.588 1094.23 316.679 1094.23 316.679C1094.23 316.679 1092.5 309.72 1093.55 306.368C1094.78 302.443 1099.55 297.715 1099.55 297.715M1099.86 278.49C1099.86 278.49 1092.33 277.263 1088.66 279.806C1084.84 282.454 1080.05 289.069 1080.05 289.069C1080.05 289.069 1086.18 296.277 1089.94 297.563C1093.49 298.779 1099.55 297.715 1099.55 297.715" stroke="#2B1204" stroke-width="1.62421"/>
<ellipse cx="1116.13" cy="289.556" rx="10.7107" ry="10.7107" transform="rotate(-22.2938 1116.13 289.556)" fill="#2B1204"/>
<path d="M1121.17 300.86L1124.52 309.036L1126.19 313.123M1109.01 299.159L1101.06 310.058M1103.5 288.048L1090.37 288.653M1110.29 276.668L1105.26 264.404M1123.6 278.85L1133.52 268.099M1127.81 291.449L1140.45 291.997M1124.27 280.486L1134.23 274.493M1121.63 278.703L1127.13 268.81M1128.29 290.297L1138.29 289.062M1127.66 293.42L1138.19 295.791M1123.14 301.007L1129.61 309.812M1119.05 302.683L1121.43 313.164M1110.83 301.277L1105.82 310.017M1106.22 299.347L1099.05 305.152M1102.53 290.354L1092.39 293.559M1102.83 286.413L1093.12 283.707M1111.93 275.997L1108.72 265.851M1108.66 277.338L1103 268.197" stroke="#2B1204" stroke-width="0.812106"/>
<path d="M758.931 474.283L751.324 471.43L746.54 476.711C746.54 476.711 744.032 481.452 744.033 484.735C744.034 487.539 747.012 492.427 747.012 492.427C747.012 492.427 751.51 492.615 754.511 491.048C758.154 489.147 760.335 482.286 760.335 482.286L758.931 474.283Z" fill="#FFF6F2"/>
<path d="M764.359 469.778L758.931 474.283L760.335 482.286C760.335 482.286 763.35 486.579 766.259 487.846C769.586 489.294 775.549 487.993 775.549 487.993C775.549 487.993 777.682 482.419 777.115 478.835C776.608 475.63 773.517 471.345 773.517 471.345L764.359 469.778Z" fill="#FFF6F2"/>
<path d="M762.956 461.776L764.359 469.778L773.517 471.345C773.517 471.345 778.248 469.335 780.364 466.971C782.363 464.738 783.861 460.14 783.861 460.14C783.861 460.14 779.94 457.357 777.029 456.642C774.044 455.91 769.159 456.627 769.159 456.627L762.956 461.776Z" fill="#FFF6F2"/>
<path d="M755.349 458.922L762.956 461.776L769.159 456.627C769.159 456.627 771.877 451.592 771.369 448.245C770.834 444.721 766.352 440.622 766.352 440.622C766.352 440.622 761.249 442.022 758.861 444.22C756.388 446.498 754.589 451.695 754.589 451.695L755.349 458.922Z" fill="#FFF6F2"/>
<path d="M749.921 463.428L755.349 458.922L754.589 451.695C754.589 451.695 751.224 446.871 748.021 445.36C744.461 443.681 738.731 445.213 738.731 445.213C738.731 445.213 736.17 450.563 737.165 454.371C738.06 457.798 742.182 461.993 742.182 461.993L749.921 463.428Z" fill="#FFF6F2"/>
<path d="M751.324 471.43L749.921 463.428L742.182 461.993C742.182 461.993 736.157 462.854 733.969 465.667C731.689 468.597 729.615 474.781 729.615 474.781C729.615 474.781 736.009 478.807 739.181 478.89C742.177 478.967 746.54 476.711 746.54 476.711L751.324 471.43Z" fill="#FFF6F2"/>
<path d="M751.324 471.43C754.295 472.544 755.96 473.169 758.931 474.283M751.324 471.43C750.776 468.305 750.469 466.553 749.921 463.428M751.324 471.43C749.456 473.492 746.54 476.711 746.54 476.711M751.324 471.43C754.295 472.544 758.931 474.283 758.931 474.283M751.324 471.43L758.931 474.283M751.324 471.43L746.54 476.711M751.324 471.43L749.921 463.428M758.931 474.283C761.051 472.524 764.359 469.778 764.359 469.778M758.931 474.283C759.479 477.409 760.335 482.286 760.335 482.286M758.931 474.283L764.359 469.778M758.931 474.283L760.335 482.286M764.359 469.778L762.956 461.776M764.359 469.778L773.517 471.345M762.956 461.776L755.349 458.922M762.956 461.776L769.159 456.627M755.349 458.922C755.349 458.922 752.04 461.668 749.921 463.428M755.349 458.922L754.589 451.695M755.349 458.922L749.921 463.428M749.921 463.428C746.898 462.867 742.182 461.993 742.182 461.993M749.921 463.428L742.182 461.993M754.589 451.695C754.589 451.695 751.224 446.871 748.021 445.36C744.461 443.681 738.731 445.213 738.731 445.213C738.731 445.213 736.17 450.563 737.165 454.371C738.06 457.798 742.182 461.993 742.182 461.993M754.589 451.695C754.589 451.695 756.388 446.498 758.861 444.22C761.249 442.022 766.352 440.622 766.352 440.622C766.352 440.622 770.834 444.721 771.369 448.245C771.877 451.592 769.159 456.627 769.159 456.627M769.159 456.627C769.159 456.627 774.044 455.91 777.029 456.642C779.94 457.357 783.861 460.14 783.861 460.14C783.861 460.14 782.363 464.738 780.364 466.971C778.248 469.335 773.517 471.345 773.517 471.345M773.517 471.345C773.517 471.345 776.608 475.63 777.115 478.835C777.682 482.419 775.549 487.993 775.549 487.993C775.549 487.993 769.586 489.294 766.259 487.846C763.35 486.579 760.335 482.286 760.335 482.286M760.335 482.286C760.335 482.286 758.154 489.147 754.511 491.048C751.51 492.615 747.012 492.427 747.012 492.427C747.012 492.427 744.034 487.539 744.033 484.735C744.032 481.452 746.54 476.711 746.54 476.711M742.182 461.993C742.182 461.993 736.157 462.854 733.969 465.667C731.689 468.597 729.615 474.781 729.615 474.781C729.615 474.781 736.009 478.807 739.181 478.89C742.177 478.967 746.54 476.711 746.54 476.711" stroke="#2B1204" stroke-width="1.29662"/>
<ellipse cx="757.217" cy="466.539" rx="8.55041" ry="8.55041" transform="rotate(-39.6929 757.217 466.539)" fill="#2B1204"/>
<path d="M763.755 473.947L768.26 479.375L770.513 482.089M754.087 475.554L750.635 485.753M747.237 468.405L737.385 471.998M749.696 458.113L742.938 449.971M760.357 456.599L765.345 446.041M766.572 465.191L776.331 462.591M761.258 457.684L767.413 450.742M758.821 456.957L760.644 448.109M766.664 464.198L773.986 460.871M766.93 466.728L775.512 466.022M765.291 473.589L772.326 478.751M762.577 475.841L766.898 483.256M755.982 476.731L754.25 484.586M752.009 476.362L747.932 482.496M747.053 470.392L740.089 475.255M746.336 467.319L738.297 467.574M750.782 457.212L745.918 450.248M748.61 459.014L742.119 453.402" stroke="#2B1204" stroke-width="0.648311"/>
<path d="M735.028 529.634L729.032 519.141L718.538 520.64C718.538 520.64 711.163 523.684 708.045 527.443C705.383 530.653 704.148 539.078 704.148 539.078C704.148 539.078 709.118 543.566 714.041 544.624C720.017 545.908 729.032 540.127 729.032 540.127L735.028 529.634Z" fill="#FFF6F2"/>
<path d="M745.521 529.634H735.028L729.032 540.127C729.032 540.127 728.404 547.905 730.531 552.119C732.962 556.937 741.024 561.113 741.024 561.113C741.024 561.113 748.761 556.76 751.517 552.119C753.981 547.968 754.515 540.127 754.515 540.127L745.521 529.634Z" fill="#FFF6F2"/>
<path d="M751.517 519.141L745.521 529.634L754.515 540.127C754.515 540.127 761.839 542.322 766.507 541.626C770.916 540.968 777 537.129 777 537.129C777 537.129 775.156 530.218 772.503 526.636C769.782 522.961 763.509 519.141 763.509 519.141H751.517Z" fill="#FFF6F2"/>
<path d="M745.521 508.647L751.517 519.141H763.509C763.509 519.141 771.404 515.959 774.002 511.645C776.737 507.104 775.501 498.154 775.501 498.154C775.501 498.154 768.33 494.908 763.509 495.156C758.514 495.413 751.517 499.653 751.517 499.653L745.521 508.647Z" fill="#FFF6F2"/>
<path d="M735.028 508.647H745.521L751.517 499.653C751.517 499.653 752.249 490.935 750.018 486.162C747.538 480.859 739.525 477.168 739.525 477.168C739.525 477.168 731.511 480.859 729.032 486.162C726.8 490.935 727.533 499.653 727.533 499.653L735.028 508.647Z" fill="#FFF6F2"/>
<path d="M729.032 519.141L735.028 508.647L727.533 499.653C727.533 499.653 719.818 494.915 714.641 496.056C709.248 497.244 701 502.352 701 502.352C701 502.352 704.493 513.035 708.045 516.143C711.401 519.078 718.538 520.64 718.538 520.64L729.032 519.141Z" fill="#FFF6F2"/>
<path d="M729.032 519.141C731.373 523.238 732.686 525.536 735.028 529.634M729.032 519.141C731.373 515.043 732.686 512.745 735.028 508.647M729.032 519.141C724.934 519.726 718.538 520.64 718.538 520.64M729.032 519.141C731.373 523.238 735.028 529.634 735.028 529.634M729.032 519.141L735.028 529.634M729.032 519.141L718.538 520.64M729.032 519.141L735.028 508.647M735.028 529.634C739.125 529.634 745.521 529.634 745.521 529.634M735.028 529.634C732.686 533.731 729.032 540.127 729.032 540.127M735.028 529.634H745.521M735.028 529.634L729.032 540.127M745.521 529.634L751.517 519.141M745.521 529.634L754.515 540.127M751.517 519.141L745.521 508.647M751.517 519.141H763.509M745.521 508.647C745.521 508.647 739.125 508.647 735.028 508.647M745.521 508.647L751.517 499.653M745.521 508.647H735.028M735.028 508.647C732.101 505.135 727.533 499.653 727.533 499.653M735.028 508.647L727.533 499.653M751.517 499.653C751.517 499.653 752.249 490.935 750.018 486.162C747.538 480.859 739.525 477.168 739.525 477.168C739.525 477.168 731.511 480.859 729.032 486.162C726.8 490.935 727.533 499.653 727.533 499.653M751.517 499.653C751.517 499.653 758.514 495.413 763.509 495.156C768.33 494.908 775.501 498.154 775.501 498.154C775.501 498.154 776.737 507.104 774.002 511.645C771.404 515.959 763.509 519.141 763.509 519.141M763.509 519.141C763.509 519.141 769.782 522.961 772.503 526.636C775.156 530.218 777 537.129 777 537.129C777 537.129 770.916 540.968 766.507 541.626C761.839 542.322 754.515 540.127 754.515 540.127M754.515 540.127C754.515 540.127 753.981 547.968 751.517 552.119C748.761 556.76 741.024 561.113 741.024 561.113C741.024 561.113 732.962 556.937 730.531 552.119C728.404 547.905 729.032 540.127 729.032 540.127M729.032 540.127C729.032 540.127 720.017 545.908 714.041 544.624C709.118 543.566 704.148 539.078 704.148 539.078C704.148 539.078 705.383 530.653 708.045 527.443C711.163 523.684 718.538 520.64 718.538 520.64M727.533 499.653C727.533 499.653 719.818 494.915 714.641 496.056C709.248 497.244 701 502.352 701 502.352C701 502.352 704.493 513.035 708.045 516.143C711.401 519.078 718.538 520.64 718.538 520.64" stroke="#312721" stroke-width="1.92875"/>
<ellipse cx="740.424" cy="519.141" rx="12.7189" ry="12.7189" fill="#312721"/>
<path d="M740.869 533.831V544.324V549.57M728.277 526.486L714.636 534.88M727.227 511.795L712.537 506.549M739.819 502.351V486.612M753.46 510.746L769.2 503.401M752.411 526.486L766.052 532.781M753.46 512.845L767.101 510.746M751.362 509.697L761.855 501.302M753.46 525.436L765.003 528.584M751.362 528.584L761.855 535.929M742.967 534.88L746.115 547.472M737.721 534.88L735.622 547.472M729.326 529.634L719.882 536.979M725.129 525.436L714.636 528.584M725.129 513.894L712.537 512.845M727.227 509.697L717.784 502.351M741.918 502.351L742.967 489.76M737.721 502.351L735.622 489.76" stroke="#312721" stroke-width="0.964376"/>
</svg>
