<svg width="34" height="37" viewBox="0 0 34 37" fill="none" xmlns="http://www.w3.org/2000/svg">
<path d="M15.1211 23.0074L12.5438 18.4972L8.03362 19.1415C8.03362 19.1415 4.86353 20.45 3.52341 22.0657C2.37901 23.4454 1.84819 27.0667 1.84819 27.0667C1.84819 27.0667 3.98446 28.9958 6.10067 29.4506C8.66904 30.0026 12.5438 27.5177 12.5438 27.5177L15.1211 23.0074Z" fill="#FFF6F2"/>
<path d="M19.6313 23.0074H15.1211L12.5438 27.5177C12.5438 27.5177 12.2742 30.8611 13.1882 32.6722C14.2333 34.7432 17.6984 36.5381 17.6984 36.5381C17.6984 36.5381 21.0242 34.6669 22.2086 32.6722C23.2679 30.8881 23.4972 27.5177 23.4972 27.5177L19.6313 23.0074Z" fill="#FFF6F2"/>
<path d="M22.2086 18.4972L19.6313 23.0074L23.4972 27.5177C23.4972 27.5177 26.6453 28.4611 28.6517 28.162C30.5471 27.8794 33.162 26.229 33.162 26.229C33.162 26.229 32.3695 23.2588 31.229 21.7188C30.0594 20.1395 27.3631 18.4972 27.3631 18.4972H22.2086Z" fill="#FFF6F2"/>
<path d="M19.6313 13.987L22.2086 18.4972H27.3631C27.3631 18.4972 30.7567 17.1299 31.8733 15.2756C33.0488 13.3237 32.5176 9.47679 32.5176 9.47679C32.5176 9.47679 29.4353 8.08162 27.3631 8.18816C25.2161 8.29854 22.2086 10.121 22.2086 10.121L19.6313 13.987Z" fill="#FFF6F2"/>
<path d="M15.1211 13.987H19.6313L22.2086 10.121C22.2086 10.121 22.5234 6.37369 21.5643 4.32226C20.4986 2.04286 17.0541 0.45636 17.0541 0.45636C17.0541 0.45636 13.6095 2.04286 12.5438 4.32226C11.5847 6.37369 11.8995 10.121 11.8995 10.121L15.1211 13.987Z" fill="#FFF6F2"/>
<path d="M12.5438 18.4972L15.1211 13.987L11.8995 10.121C11.8995 10.121 8.58357 8.08452 6.35841 8.57477C4.04022 9.08552 0.495117 11.2809 0.495117 11.2809C0.495117 11.2809 1.99656 15.8729 3.52341 17.2086C4.96569 18.4703 8.03362 19.1415 8.03362 19.1415L12.5438 18.4972Z" fill="#FFF6F2"/>
<path d="M12.5438 18.4972C13.5503 20.2586 14.1146 21.2461 15.1211 23.0074M12.5438 18.4972C13.5503 16.7359 14.1146 15.7484 15.1211 13.987M12.5438 18.4972C10.7825 18.7488 8.03362 19.1415 8.03362 19.1415M12.5438 18.4972C13.5503 20.2586 15.1211 23.0074 15.1211 23.0074M12.5438 18.4972L15.1211 23.0074M12.5438 18.4972L8.03362 19.1415M12.5438 18.4972L15.1211 13.987M15.1211 23.0074C16.8825 23.0074 19.6313 23.0074 19.6313 23.0074M15.1211 23.0074C14.1146 24.7688 12.5438 27.5177 12.5438 27.5177M15.1211 23.0074H19.6313M15.1211 23.0074L12.5438 27.5177M19.6313 23.0074L22.2086 18.4972M19.6313 23.0074L23.4972 27.5177M22.2086 18.4972L19.6313 13.987M22.2086 18.4972H27.3631M19.6313 13.987C19.6313 13.987 16.8825 13.987 15.1211 13.987M19.6313 13.987L22.2086 10.121M19.6313 13.987H15.1211M15.1211 13.987C13.863 12.4772 11.8995 10.121 11.8995 10.121M15.1211 13.987L11.8995 10.121M22.2086 10.121C22.2086 10.121 22.5234 6.37369 21.5643 4.32226C20.4986 2.04286 17.0541 0.45636 17.0541 0.45636C17.0541 0.45636 13.6095 2.04286 12.5438 4.32226C11.5847 6.37369 11.8995 10.121 11.8995 10.121M22.2086 10.121C22.2086 10.121 25.2161 8.29854 27.3631 8.18816C29.4353 8.08162 32.5176 9.47679 32.5176 9.47679C32.5176 9.47679 33.0488 13.3237 31.8733 15.2756C30.7567 17.1299 27.3631 18.4972 27.3631 18.4972M27.3631 18.4972C27.3631 18.4972 30.0594 20.1395 31.229 21.7188C32.3695 23.2588 33.162 26.229 33.162 26.229C33.162 26.229 30.5471 27.8794 28.6517 28.162C26.6453 28.4611 23.4972 27.5177 23.4972 27.5177M23.4972 27.5177C23.4972 27.5177 23.2679 30.8881 22.2086 32.6722C21.0242 34.6669 17.6984 36.5381 17.6984 36.5381C17.6984 36.5381 14.2333 34.7432 13.1882 32.6722C12.2742 30.8611 12.5438 27.5177 12.5438 27.5177M12.5438 27.5177C12.5438 27.5177 8.66904 30.0026 6.10067 29.4506C3.98446 28.9958 1.84819 27.0667 1.84819 27.0667C1.84819 27.0667 2.37901 23.4454 3.52341 22.0657C4.86353 20.45 8.03362 19.1415 8.03362 19.1415M11.8995 10.121C11.8995 10.121 8.58357 8.08452 6.35841 8.57477C4.04022 9.08552 0.495117 11.2809 0.495117 11.2809C0.495117 11.2809 1.99656 15.8729 3.52341 17.2086C4.96569 18.4703 8.03362 19.1415 8.03362 19.1415" stroke="#2B1204" stroke-width="0.82903"/>
<ellipse cx="17.4406" cy="18.4973" rx="5.46693" ry="5.46693" fill="#2B1204"/>
<path d="M17.6317 24.8115V29.3217V31.5768M12.2194 21.6543L6.35615 25.2625M11.7684 15.34L5.4541 13.0849M17.1807 11.2808V4.51544M23.044 14.889L29.8093 11.7318M22.593 21.6543L28.4563 24.3605M23.044 15.791L28.9073 14.889M22.1419 14.4379L26.6522 10.8298M23.044 21.2033L28.0052 22.5564M22.1419 22.5564L26.6522 25.7135M18.5338 25.2625L19.8868 30.6748M16.2787 25.2625L15.3766 30.6748M12.6705 23.0074L8.61126 26.1645M10.8664 21.2033L6.35615 22.5564M10.8664 16.242L5.4541 15.791M11.7684 14.4379L7.70922 11.2808M18.0827 11.2808L18.5338 5.86851M16.2787 11.2808L15.3766 5.86851" stroke="#2B1204" stroke-width="0.414515"/>
</svg>
